<svg xmlns="http://www.w3.org/2000/svg" viewBox="0 0 200 80">
  <style>
    .logo-text { font-family: Arial, sans-serif; font-weight: bold; }
    .nomadico-n { font-size: 24px; }
    .vehicle-icon { fill: #333; }
  </style>
  <text x="10" y="30" class="logo-text nomadico-n" fill="#000">NOMÁ</text>
  <text x="10" y="55" class="logo-text nomadico-n" fill="#000">DICO</text>
  <g class="vehicle-icon" transform="translate(150, 40) scale(0.8)">
    <path d="M5,9 L19,9 C20.1,9 21,9.9 21,11 L21,15 C21,16.1 20.1,17 19,17 L5,17 C3.9,17 3,16.1 3,15 L3,11 C3,9.9 3.9,9 5,9 Z M5,19 L19,19 L19,20 C19,21.1 18.1,22 17,22 L7,22 C5.9,22 5,21.1 5,20 L5,19 Z M7,12 L7,15 L17,15 L17,12 L7,12 Z" />
    <circle cx="6.5" cy="20" r="1.5" />
    <circle cx="17.5" cy="20" r="1.5" />
  </g>
</svg>