<svg xmlns="http://www.w3.org/2000/svg" width="800" height="400" viewBox="0 0 800 400">
  <defs>
    <linearGradient id="land-gradient" x1="0%" y1="0%" x2="100%" y2="100%">
      <stop offset="0%" stop-color="#8B4513" />
      <stop offset="50%" stop-color="#A0522D" />
      <stop offset="100%" stop-color="#CD853F" />
    </linearGradient>
    <linearGradient id="water-gradient" x1="0%" y1="0%" x2="100%" y2="100%">
      <stop offset="0%" stop-color="#1E90FF" />
      <stop offset="100%" stop-color="#4169E1" />
    </linearGradient>
  </defs>
  
  <!-- Background -->
  <rect width="800" height="400" fill="#E0F7FA" />
  
  <!-- Land mass -->
  <path d="M0,150 C100,120 200,180 300,150 C400,120 500,200 600,150 C700,180 800,120 800,200 L800,400 L0,400 Z" fill="url(#land-gradient)" />
  
  <!-- Water body -->
  <path d="M300,200 C350,180 400,220 450,200 C500,180 550,220 600,200 L600,400 L300,400 Z" fill="url(#water-gradient)" />
  
  <!-- Road -->
  <path d="M100,250 C150,230 200,270 250,250 C300,230 350,270 400,250 L400,400 L100,400 Z" fill="#555" />
  
  <!-- Vehicle (top view) -->
  <rect x="350" y="300" width="20" height="40" rx="5" fill="#333" />
</svg>