<svg xmlns="http://www.w3.org/2000/svg" viewBox="0 0 800 800">
  <defs>
    <linearGradient id="earthGradient" x1="0%" y1="0%" x2="100%" y2="100%">
      <stop offset="0%" stop-color="#81C784" />
      <stop offset="100%" stop-color="#4CAF50" />
    </linearGradient>
    <linearGradient id="waterGradient" x1="0%" y1="0%" x2="100%" y2="100%">
      <stop offset="0%" stop-color="#64B5F6" />
      <stop offset="100%" stop-color="#2196F3" />
    </linearGradient>
  </defs>
  
  <!-- Earth Circle -->
  <circle cx="400" cy="400" r="300" fill="url(#waterGradient)" />
  
  <!-- Continents -->
  <path d="M350,150 C450,170 500,200 550,300 C600,400 550,500 500,550 C450,600 350,620 300,550 C250,480 200,450 150,400 C100,350 120,300 200,250 C280,200 300,140 350,150 Z" fill="url(#earthGradient)" />
  
  <path d="M650,350 C670,400 660,450 630,500 C600,550 550,580 500,550 C450,520 420,480 450,450 C480,420 520,400 550,380 C580,360 630,300 650,350 Z" fill="url(#earthGradient)" />
  
  <path d="M400,600 C450,620 500,610 550,590 C600,570 620,530 600,500 C580,470 550,450 500,460 C450,470 400,500 380,530 C360,560 350,580 400,600 Z" fill="url(#earthGradient)" />
  
  <!-- Wind Turbines -->
  <g transform="translate(200, 250) scale(0.6)">
    <rect x="-5" y="0" width="10" height="100" fill="#EEEEEE" />
    <circle cx="0" cy="0" r="5" fill="#EEEEEE" />
    <g transform="rotate(0)">
      <rect x="0" y="-60" width="120" height="10" rx="5" fill="#EEEEEE" transform="rotate(30)" />
      <rect x="0" y="-60" width="120" height="10" rx="5" fill="#EEEEEE" transform="rotate(150)" />
      <rect x="0" y="-60" width="120" height="10" rx="5" fill="#EEEEEE" transform="rotate(270)" />
    </g>
  </g>
  
  <g transform="translate(250, 280) scale(0.4)">
    <rect x="-5" y="0" width="10" height="100" fill="#EEEEEE" />
    <circle cx="0" cy="0" r="5" fill="#EEEEEE" />
    <g transform="rotate(20)">
      <rect x="0" y="-60" width="120" height="10" rx="5" fill="#EEEEEE" transform="rotate(30)" />
      <rect x="0" y="-60" width="120" height="10" rx="5" fill="#EEEEEE" transform="rotate(150)" />
      <rect x="0" y="-60" width="120" height="10" rx="5" fill="#EEEEEE" transform="rotate(270)" />
    </g>
  </g>
  
  <!-- Trees -->
  <g transform="translate(500, 400) scale(0.7)">
    <rect x="-10" y="0" width="20" height="40" fill="#795548" />
    <path d="M0,-80 L-40,-20 L-20,-20 L-50,20 L-10,20 L-30,60 L30,60 L10,20 L50,20 L20,-20 L40,-20 Z" fill="#4CAF50" />
  </g>
  
  <g transform="translate(550, 380) scale(0.5)">
    <rect x="-10" y="0" width="20" height="40" fill="#795548" />
    <path d="M0,-80 L-40,-20 L-20,-20 L-50,20 L-10,20 L-30,60 L30,60 L10,20 L50,20 L20,-20 L40,-20 Z" fill="#4CAF50" />
  </g>
  
  <g transform="translate(470, 420) scale(0.4)">
    <rect x="-10" y="0" width="20" height="40" fill="#795548" />
    <path d="M0,-80 L-40,-20 L-20,-20 L-50,20 L-10,20 L-30,60 L30,60 L10,20 L50,20 L20,-20 L40,-20 Z" fill="#4CAF50" />
  </g>
  
  <!-- Solar Panels -->
  <g transform="translate(300, 500) scale(0.5)">
    <rect x="-60" y="-40" width="120" height="80" fill="#1A237E" stroke="#EEEEEE" stroke-width="5" />
    <line x1="-60" y1="-13" x2="60" y2="-13" stroke="#EEEEEE" stroke-width="2" />
    <line x1="-60" y1="14" x2="60" y2="14" stroke="#EEEEEE" stroke-width="2" />
    <line x1="-20" y1="-40" x2="-20" y2="40" stroke="#EEEEEE" stroke-width="2" />
    <line x1="20" y1="-40" x2="20" y2="40" stroke="#EEEEEE" stroke-width="2" />
  </g>
  
  <!-- Recycling Symbol -->
  <g transform="translate(600, 480) scale(0.4)">
    <circle cx="0" cy="0" r="80" fill="#FFFFFF" />
    <path d="M-40,-20 L0,-80 L40,-20 Z" fill="#4CAF50" transform="rotate(0)" />
    <path d="M-40,-20 L0,-80 L40,-20 Z" fill="#4CAF50" transform="rotate(120)" />
    <path d="M-40,-20 L0,-80 L40,-20 Z" fill="#4CAF50" transform="rotate(240)" />
    <circle cx="0" cy="0" r="30" fill="#FFFFFF" />
  </g>
  
  <!-- Clouds -->
  <g opacity="0.8">
    <ellipse cx="200" cy="150" rx="60" ry="30" fill="#FFFFFF" />
    <ellipse cx="250" cy="140" rx="50" ry="25" fill="#FFFFFF" />
    <ellipse cx="150" cy="160" rx="40" ry="20" fill="#FFFFFF" />
  </g>
  
  <g opacity="0.8">
    <ellipse cx="600" cy="200" rx="70" ry="35" fill="#FFFFFF" />
    <ellipse cx="650" cy="190" rx="50" ry="25" fill="#FFFFFF" />
    <ellipse cx="550" cy="210" rx="40" ry="20" fill="#FFFFFF" />
  </g>
</svg>